<svg width="55" height="57" viewBox="0 0 55 57" fill="none" xmlns="http://www.w3.org/2000/svg">
<circle cx="31.3732" cy="38.113" r="17.8517" fill="#FF8CA9"/>
<path d="M25.6004 39.9499L5.57308 46.1305L6.01342 52.0683C6.01342 52.0683 10.5868 53.7402 12.7761 53.7613C21.5058 53.8458 32.3539 50.577 32.3539 50.577L25.6004 39.9499Z" fill="#FF8CA9"/>
<path d="M5.72334 46.1891C4.49142 45.1981 2.72688 46.1916 1.99646 47.5752C-0.12832 51.5999 6.47891 52.209 6.47891 52.209C6.47891 52.209 6.1158 50.8695 5.94996 49.7151C5.75376 48.3493 6.80194 47.0566 5.72334 46.1891Z" fill="#3F3D48"/>
<mask id="mask0_187_535" style="mask-type:alpha" maskUnits="userSpaceOnUse" x="29" y="33" width="12" height="6">
<path d="M36.0818 38.0435C38.4078 37.3301 40.1761 33.6479 40.1761 33.6479L29.8023 35.9509C29.8023 35.9509 33.4906 38.8382 36.0818 38.0435Z" fill="white"/>
</mask>
<g mask="url(#mask0_187_535)">
<path d="M36.0818 38.0435C38.4078 37.3301 40.1761 33.6479 40.1761 33.6479L29.8023 35.9509C29.8023 35.9509 33.4906 38.8382 36.0818 38.0435Z" fill="white"/>
<circle cx="35.6852" cy="35.6086" r="2.2409" fill="#3F3D48"/>
</g>
<mask id="mask1_187_535" style="mask-type:alpha" maskUnits="userSpaceOnUse" x="15" y="33" width="8" height="5">
<path d="M19.7565 37.9292C17.6144 37.9428 15.5596 33.9279 15.5596 33.9279L22.6825 35.4843C22.6825 35.4843 21.3962 37.9188 19.7565 37.9292Z" fill="white"/>
</mask>
<g mask="url(#mask1_187_535)">
<path d="M19.7565 37.9292C17.6144 37.9428 15.5596 33.9279 15.5596 33.9279L22.6825 35.4843C22.6825 35.4843 21.3962 37.9188 19.7565 37.9292Z" fill="white"/>
<circle cx="19.9989" cy="35.6082" r="1.96078" fill="#3F3D48"/>
</g>
<path d="M19.1865 18.4528L20.122 10.2971L26.9978 23.4555L18.3542 26.8049L19.1865 18.4528Z" fill="#FF8CA9" stroke="#FF8CA9" stroke-width="2"/>
<path d="M46.3094 19.0337L46.3094 29.9923L35.3957 21.9812L43.5804 4.33594L46.3094 19.0337Z" fill="#FF8CA9" stroke="#FF8CA9" stroke-width="2"/>
</svg>
